<?xml version="1.0" standalone="no"?>
<!DOCTYPE svg PUBLIC "-//W3C//DTD SVG 20010904//EN"
 "http://www.w3.org/TR/2001/REC-SVG-20010904/DTD/svg10.dtd">
<svg version="1.0" xmlns="http://www.w3.org/2000/svg"
 width="512.000000pt" height="512.000000pt" viewBox="0 0 512.000000 512.000000"
 preserveAspectRatio="xMidYMid meet">

<g transform="translate(0.000000,512.000000) scale(0.100000,-0.100000)"
fill="#fff" stroke="none">
<path d="M3800 4150 c-499 -53 -891 -280 -1144 -665 -44 -67 -45 -68 -51 -39
-78 368 -287 542 -750 624 -182 33 -354 40 -927 40 l-548 0 0 -1696 0 -1695
708 4 c618 3 718 5 795 21 323 63 541 185 682 381 24 33 53 81 66 108 25 51
33 56 48 30 42 -79 234 -270 346 -344 125 -83 330 -169 475 -199 356 -74 853
-53 1203 51 l107 32 0 177 0 178 -72 -19 c-563 -147 -1007 -142 -1319 16 -186
95 -345 255 -445 448 l-39 77 270 270 c148 148 274 270 279 270 6 0 98 -88
207 -195 108 -107 204 -195 214 -195 21 0 88 63 467 439 l296 294 75 -72 c42
-39 82 -71 89 -71 8 0 24 7 36 16 21 15 22 20 22 214 0 187 -1 200 -19 210
-12 6 -99 10 -215 10 -183 0 -196 -1 -206 -19 -18 -35 -11 -52 55 -123 36 -39
65 -76 65 -82 0 -6 -148 -160 -330 -341 l-330 -330 -142 141 c-205 201 -264
254 -284 254 -10 0 -147 -129 -305 -286 l-287 -287 -16 54 c-72 243 -90 645
-41 928 77 443 330 787 685 932 327 133 752 114 1154 -50 55 -22 101 -40 102
-38 7 8 164 329 164 335 0 5 -33 23 -72 40 -152 63 -328 111 -509 137 -128 19
-444 27 -559 15z m-2055 -419 c323 -72 456 -219 457 -506 0 -273 -107 -434
-338 -509 -131 -43 -195 -48 -646 -53 l-438 -5 0 552 0 552 433 -5 c400 -4
439 -6 532 -26z m637 -1198 c-2 -93 -6 -169 -7 -171 -2 -2 -14 3 -27 12 -56
36 -207 87 -360 120 -45 10 -33 21 45 39 107 25 196 62 278 117 41 27 74 49
75 50 1 0 -1 -75 -4 -167z m-715 -224 c354 -39 554 -176 618 -424 19 -73 21
-247 4 -336 -32 -175 -137 -314 -291 -388 -178 -85 -308 -101 -834 -101 l-384
0 0 630 0 630 395 0 c218 0 439 -5 492 -11z"/>
</g>
</svg>
